<svg width="24" height="24" viewBox="0 0 24 24" fill="none" xmlns="http://www.w3.org/2000/svg">
<path d="M12.8667 0.00143546C13.718 -0.00183147 14.5694 0.006725 15.4205 0.0271022L15.6468 0.0352689C15.9082 0.0446022 16.166 0.0562688 16.4775 0.0702688C17.7188 0.128602 18.5658 0.324602 19.309 0.612769C20.079 0.909102 20.7277 1.31044 21.3763 1.9591C21.9694 2.54198 22.4285 3.24704 22.7215 4.02527C23.0097 4.76844 23.2057 5.6166 23.264 6.85794C23.278 7.16827 23.2897 7.42727 23.299 7.6886L23.306 7.91494C23.3267 8.76566 23.3357 9.61663 23.3328 10.4676L23.334 11.3379V12.8663C23.3369 13.7176 23.3279 14.569 23.3072 15.4201L23.3002 15.6464C23.2908 15.9078 23.2792 16.1656 23.2652 16.4771C23.2068 17.7184 23.0085 18.5654 22.7215 19.3086C22.4294 20.0877 21.9703 20.7933 21.3763 21.3759C20.793 21.969 20.0875 22.428 19.309 22.7211C18.5658 23.0093 17.7188 23.2053 16.4775 23.2636C16.166 23.2776 15.9082 23.2893 15.6468 23.2986L15.4205 23.3056C14.5694 23.3263 13.718 23.3353 12.8667 23.3324L11.9963 23.3336H10.4692C9.61781 23.3365 8.76645 23.3275 7.91534 23.3068L7.68901 23.2998C7.41205 23.2897 7.13516 23.2781 6.85834 23.2648C5.61701 23.2064 4.77001 23.0081 4.02567 22.7211C3.24714 22.4287 2.54195 21.9696 1.95951 21.3759C1.36573 20.7929 0.906268 20.0874 0.613173 19.3086C0.325007 18.5654 0.129006 17.7184 0.0706731 16.4771C0.0576798 16.2003 0.0460131 15.9234 0.0356731 15.6464L0.0298399 15.4201C0.00833079 14.569 -0.00139247 13.7176 0.000673167 12.8663V10.4676C-0.00258296 9.61664 0.00597351 8.76567 0.0263399 7.91494L0.0345066 7.6886C0.0438399 7.42727 0.0555065 7.16827 0.0695065 6.85794C0.12784 5.61544 0.32384 4.7696 0.612006 4.02527C0.905275 3.24666 1.36563 2.54179 1.96067 1.96027C2.54272 1.36615 3.24746 0.90627 4.02567 0.612769C4.77001 0.324602 5.61584 0.128602 6.85834 0.0702688L7.68901 0.0352689L7.91534 0.0294357C8.76605 0.00793727 9.61702 -0.00178599 10.468 0.000268879L12.8667 0.00143546ZM11.6673 5.83477C10.8944 5.82384 10.1271 5.96663 9.40981 6.25485C8.69257 6.54307 8.03976 6.97096 7.48933 7.51367C6.93889 8.05637 6.50181 8.70306 6.20347 9.41616C5.90514 10.1293 5.75151 10.8945 5.75151 11.6675C5.75151 12.4405 5.90514 13.2058 6.20347 13.9189C6.50181 14.632 6.93889 15.2787 7.48933 15.8214C8.03976 16.3641 8.69257 16.792 9.40981 17.0802C10.1271 17.3684 10.8944 17.5112 11.6673 17.5003C13.2144 17.5003 14.6982 16.8857 15.7921 15.7917C16.8861 14.6978 17.5007 13.214 17.5007 11.6669C17.5007 10.1198 16.8861 8.63611 15.7921 7.54215C14.6982 6.44818 13.2144 5.83477 11.6673 5.83477ZM11.6673 8.1681C12.1323 8.15954 12.5942 8.2437 13.0263 8.41568C13.4583 8.58766 13.8517 8.844 14.1836 9.16974C14.5154 9.49547 14.779 9.88407 14.959 10.3128C15.139 10.7416 15.2317 11.2019 15.2318 11.6669C15.2319 12.1319 15.1393 12.5923 14.9595 13.0211C14.7796 13.4499 14.5162 13.8386 14.1844 14.1645C13.8527 14.4903 13.4593 14.7468 13.0274 14.9189C12.5954 15.091 12.1334 15.1753 11.6685 15.1669C10.7402 15.1669 9.85001 14.7982 9.19363 14.1418C8.53726 13.4854 8.16851 12.5952 8.16851 11.6669C8.16851 10.7387 8.53726 9.84844 9.19363 9.19206C9.85001 8.53568 10.7402 8.16694 11.6685 8.16694L11.6673 8.1681ZM17.7923 4.08477C17.416 4.09983 17.06 4.25994 16.799 4.53157C16.5381 4.80319 16.3923 5.16526 16.3923 5.54194C16.3923 5.91861 16.5381 6.28068 16.799 6.5523C17.06 6.82393 17.416 6.98404 17.7923 6.9991C18.1791 6.9991 18.55 6.84546 18.8235 6.57197C19.097 6.29848 19.2507 5.92754 19.2507 5.54077C19.2507 5.154 19.097 4.78306 18.8235 4.50957C18.55 4.23608 18.1791 4.08244 17.7923 4.08244V4.08477Z" fill="white"/>
</svg>
