<svg width="21" height="21" viewBox="0 0 21 21" fill="none" xmlns="http://www.w3.org/2000/svg">
<path d="M17.892 17.8955H14.7828V13.0223C14.7828 11.8603 14.7595 10.3647 13.1612 10.3647C11.5407 10.3647 11.2933 11.6293 11.2933 12.9372V17.8955H8.183V7.875H11.1697V9.24H11.2105C11.6282 8.45367 12.6432 7.62183 14.1598 7.62183C17.3098 7.62183 17.8932 9.69617 17.8932 12.3947L17.892 17.8955ZM4.67133 6.50417C4.43398 6.50447 4.1989 6.45793 3.97957 6.36721C3.76024 6.27648 3.56098 6.14336 3.3932 5.97547C3.22542 5.80759 3.09243 5.60823 3.00185 5.38885C2.91126 5.16946 2.86487 4.93435 2.86533 4.697C2.86556 4.33981 2.97171 3.9907 3.17035 3.69384C3.36898 3.39697 3.65119 3.16567 3.98128 3.02919C4.31138 2.89272 4.67453 2.85719 5.02481 2.9271C5.37509 2.99701 5.69678 3.16922 5.94919 3.42196C6.2016 3.67469 6.3734 3.9966 6.44286 4.34698C6.51232 4.69735 6.47632 5.06046 6.33941 5.39037C6.20251 5.72029 5.97085 6.00219 5.67372 6.20045C5.3766 6.3987 5.02736 6.5044 4.67017 6.50417H4.67133ZM6.23 17.8955H3.1115V7.875H6.23V17.8955ZM19.4483 0H1.55167C0.693 0 0 0.676667 0 1.51317V19.4868C0 20.3233 0.693 21 1.54933 21H19.4448C20.3 21 21 20.3233 21 19.4868V1.51317C21 0.677833 20.3 0 19.4437 0H19.4483Z" fill="white"/>
</svg>
