<svg width="24" height="24" viewBox="0 0 24 24" fill="none" xmlns="http://www.w3.org/2000/svg">
<path d="M11.6667 0C18.1102 0 23.3333 5.22317 23.3333 11.6667C23.3333 18.1102 18.1102 23.3333 11.6667 23.3333C9.60492 23.3367 7.57945 22.791 5.79835 21.7525L0.00468308 23.3333L1.58202 17.5373C0.542625 15.7557 -0.00342811 13.7293 1.61936e-05 11.6667C1.61936e-05 5.22317 5.22318 0 11.6667 0ZM7.69068 6.18333L7.45735 6.19267C7.30629 6.20187 7.15866 6.24155 7.02335 6.30933C6.89679 6.381 6.78126 6.47059 6.68035 6.57533C6.54035 6.70717 6.46102 6.8215 6.37585 6.93233C5.94432 7.49339 5.71198 8.1822 5.71552 8.89C5.71785 9.46167 5.86718 10.0182 6.10052 10.5385C6.57768 11.5908 7.36285 12.705 8.39885 13.7375C8.64852 13.986 8.89352 14.2357 9.15718 14.4678C10.4445 15.6012 11.9785 16.4185 13.6372 16.8548L14.2998 16.9563C14.5157 16.968 14.7315 16.9517 14.9485 16.9412C15.2883 16.9236 15.6201 16.8316 15.9203 16.6717C16.0731 16.593 16.2222 16.5073 16.3672 16.415C16.3672 16.415 16.4173 16.3823 16.513 16.31C16.6705 16.1933 16.7673 16.1105 16.898 15.974C16.9949 15.8737 17.0788 15.7558 17.143 15.6217C17.234 15.4315 17.325 15.0687 17.3623 14.7665C17.3903 14.5355 17.3822 14.4095 17.3787 14.3313C17.374 14.2065 17.2702 14.077 17.157 14.0222L16.478 13.7177C16.478 13.7177 15.463 13.2755 14.8423 12.9932C14.7774 12.9648 14.7078 12.9486 14.637 12.9453C14.5572 12.9371 14.4765 12.9461 14.4005 12.9717C14.3244 12.9972 14.2547 13.0388 14.196 13.0935C14.1902 13.0912 14.112 13.1577 13.2685 14.1797C13.2201 14.2447 13.1534 14.2939 13.077 14.3209C13.0005 14.3479 12.9177 14.3515 12.8392 14.3313C12.7632 14.311 12.6887 14.2852 12.6163 14.2543C12.4717 14.1937 12.4215 14.1703 12.3223 14.1283C11.6528 13.8361 11.0328 13.4413 10.4848 12.9582C10.3378 12.8298 10.2013 12.6898 10.0613 12.5545C9.60237 12.1149 9.20236 11.6177 8.87135 11.0752L8.80252 10.9643C8.75308 10.8899 8.7131 10.8095 8.68352 10.7252C8.63918 10.5537 8.75468 10.416 8.75468 10.416C8.75468 10.416 9.03818 10.1057 9.17002 9.93767C9.29835 9.77433 9.40685 9.61567 9.47685 9.5025C9.61452 9.28083 9.65768 9.05333 9.58535 8.87717C9.25868 8.07917 8.92035 7.28467 8.57268 6.496C8.50385 6.33967 8.29968 6.22767 8.11418 6.2055C8.05118 6.1985 7.98818 6.1915 7.92518 6.18683C7.76851 6.17905 7.61151 6.18061 7.45502 6.1915L7.68952 6.18217L7.69068 6.18333Z" fill="white"/>
</svg>
