<svg width="140" height="140" viewBox="0 0 140 140" fill="none" xmlns="http://www.w3.org/2000/svg">
<path opacity="0.4" d="M94.4418 51.6834C92.1668 51.6834 90.3584 49.8751 90.3584 47.6001V40.1334C90.3584 34.4167 87.9084 28.9334 83.7084 25.0834C79.3918 21.1751 73.8501 19.3667 68.0168 19.8917C58.2168 20.8251 49.6418 30.8001 49.6418 41.1834V46.4334C49.6418 48.7084 47.8334 50.5167 45.5584 50.5167C43.2834 50.5167 41.4751 48.7084 41.4751 46.4334V41.1834C41.4751 26.6001 53.2584 13.1251 67.2001 11.7834C75.3084 11.0251 83.1251 13.5917 89.1334 19.0751C95.0834 24.4417 98.4668 32.1417 98.4668 40.1334V47.6001C98.4668 49.8751 96.6584 51.6834 94.4418 51.6834Z" fill="#009499"/>
<path d="M116.433 52.2666C111.533 46.8416 103.483 44.2166 91.6999 44.2166H48.2999C36.5166 44.2166 28.4666 46.8416 23.5666 52.2666C17.9082 58.5666 18.0832 66.9665 18.7249 72.7999L22.8082 105.292C24.0332 116.667 28.6416 128.333 53.7249 128.333H86.2749C111.358 128.333 115.967 116.667 117.192 105.35L121.275 72.7416C121.917 66.9666 122.092 58.5666 116.433 52.2666ZM69.9999 108.383C57.8082 108.383 47.8916 98.4665 47.8916 86.2749C47.8916 74.0832 57.8082 64.1666 69.9999 64.1666C82.1916 64.1666 92.1082 74.0832 92.1082 86.2749C92.1082 98.4665 82.1916 108.383 69.9999 108.383Z" fill="#009499"/>
<path opacity="0.4" d="M69.9999 108.383C82.21 108.383 92.1083 98.4852 92.1083 86.2751C92.1083 74.065 82.21 64.1667 69.9999 64.1667C57.7898 64.1667 47.8916 74.065 47.8916 86.2751C47.8916 98.4852 57.7898 108.383 69.9999 108.383Z" fill="#009499"/>
<path d="M79.3334 89.3083L76.2417 86.2166L79.1584 83.2999C80.85 81.6083 80.85 78.8083 79.1584 77.1166C77.4667 75.4249 74.6667 75.4249 72.975 77.1166L70.0584 80.0333L66.9667 76.9416C65.275 75.2499 62.475 75.2499 60.7834 76.9416C59.0917 78.6333 59.0917 81.4333 60.7834 83.1249L63.875 86.2166L60.6667 89.4249C58.975 91.1166 58.975 93.9166 60.6667 95.6083C61.5417 96.4833 62.65 96.8916 63.7584 96.8916C64.8667 96.8916 65.975 96.4833 66.85 95.6083L70.0584 92.3999L73.15 95.4916C74.025 96.3666 75.1334 96.7749 76.2417 96.7749C77.35 96.7749 78.4584 96.3666 79.3334 95.4916C81.025 93.7999 81.025 91.0583 79.3334 89.3083Z" fill="#009499"/>
</svg>
